Coordinates
version=1
nRows=6
nColumns=63
inDegrees=yes

Units are S.I. units (second, meters, Newtons, ...)
If the header above contains a line with 'inDegrees', this indicates whether rotational values are in degrees (yes) or radians (no).

endheader
time	pelvis_tilt	pelvis_list	pelvis_rotation	pelvis_tx	pelvis_ty	pelvis_tz	hip_flexion_r	hip_adduction_r	hip_rotation_r	knee_angle_r	knee_angle_r_beta	ankle_angle_r	subtalar_angle_r	mtp_angle_r	hip_flexion_l	hip_adduction_l	hip_rotation_l	knee_angle_l	knee_angle_l_beta	ankle_angle_l	subtalar_angle_l	mtp_angle_l	L5_S1_Flex_Ext	L5_S1_Lat_Bending	L5_S1_axial_rotation	L4_L5_Flex_Ext	L4_L5_Lat_Bending	L4_L5_axial_rotation	L3_L4_Flex_Ext	L3_L4_Lat_Bending	L3_L4_axial_rotation	L2_L3_Flex_Ext	L2_L3_Lat_Bending	L2_L3_axial_rotation	L1_L2_Flex_Ext	L1_L2_Lat_Bending	L1_L2_axial_rotation	L1_T12_Flex_Ext	L1_T12_Lat_Bending	L1_T12_axial_rotation	Abs_r3	Abs_r2	Abs_r1	Abs_t1	Abs_t2	neck_flexion	neck_bending	neck_rotation	arm_flex_r	arm_add_r	arm_rot_r	elbow_flex_r	pro_sup_r	wrist_flex_r	wrist_dev_r	arm_flex_l	arm_add_l	arm_rot_l	elbow_flex_l	pro_sup_l	wrist_flex_l	wrist_dev_l
      7.72222222	      6.12012023	     -5.65373254	    103.15482157	      0.13676659	      1.09375281	      0.00229179	      7.33257069	      6.22199593	      1.41433110	     16.67938825	      0.29111024	     33.51962089	    -17.13608554	      0.00000000	     10.61180417	     -3.19435453	     15.99407803	     18.38371622	      0.32085638	     38.65737947	     -6.24889287	      0.00000000	     -0.24577674	     -0.13433973	      3.40269167	     -0.45643198	     -0.17867184	      3.61535990	     -0.40378660	     -0.32663362	      3.61535990	     -0.28089823	     -0.32663362	      2.97735521	     -0.22822828	     -0.27394558	      2.76468699	     -0.14043683	     -0.20809224	      2.55201876	     -1.75555865	     -1.51967788	     18.92475028	      0.00000000	      0.00000000	     21.36220251	     -5.48300574	      3.14314875	     56.29022133	     12.01381565	     17.94121451	    110.78566153	     43.71397101	      6.84380015	     -5.09191526	     45.48844405	      6.06355103	      6.72113748	    131.90400978	     89.12612456	     -7.57905907	      2.54708017
      7.74074074	      6.65782487	     -5.56477537	    105.02393509	      0.13249792	      1.09255318	      0.00160233	      7.16419305	      6.45729535	     -0.30804724	     16.50384316	      0.28804640	     33.67063975	    -17.11321862	      0.00000000	     11.01032834	     -3.35626531	     17.19239736	     18.78027394	      0.32777761	     39.43740408	     -5.33815809	      0.00000000	     -0.19553054	     -0.08933203	      3.24325029	     -0.36311977	     -0.11881160	      3.44595343	     -0.32123713	     -0.21720190	      3.44595343	     -0.22347186	     -0.21720190	      2.83784400	     -0.18156966	     -0.18216588	      2.63514086	     -0.11172615	     -0.13837532	      2.43243771	     -1.39665510	     -1.01054181	     18.03798512	      0.00000000	      0.00000000	     21.86869109	     -6.23277241	      4.59342991	     55.52023984	     11.28583819	     19.40652660	    109.50792240	     43.03364290	      3.57958182	     -6.63314893	     44.33516694	      5.10031211	      6.97156680	    129.83980301	     88.99342022	     -8.77932438	      3.20792212
      7.75925926	      7.14887195	     -5.44434234	    107.13337017	      0.12755799	      1.09149791	      0.00127368	      7.00408078	      6.55279327	     -2.66560944	     16.37249743	      0.28575399	     33.94325444	    -16.68613010	      0.00000000	     11.45835415	     -3.33650458	     18.78452127	     19.26787234	      0.33628781	     39.91752932	     -4.89567806	      0.00000000	     -0.16882277	     -0.04092881	      2.97280294	     -0.31352077	     -0.05443532	      3.15860313	     -0.27735893	     -0.09951431	      3.15860313	     -0.19294754	     -0.09951431	      2.60120258	     -0.15676882	     -0.08346203	      2.41540239	     -0.09646533	     -0.06339873	      2.22960221	     -1.20588416	     -0.46299491	     16.53383813	      0.00000000	      0.00000000	     22.41017704	     -6.55921439	      6.17700771	     54.46299469	     10.39586872	     21.87327452	    109.11330101	     54.69100701	     -6.58649834	     -9.91233519	     42.44109473	      3.70278701	      6.66118548	    129.21897586	     88.77406580	     -9.61358044	      4.42181227
      7.77777778	      7.77402739	     -5.35142577	    109.33936836	      0.12175808	      1.09067363	      0.00110426	      6.83656716	      6.74784702	     -5.07250027	     16.05055053	      0.28013495	     33.90422004	    -16.47058187	      0.00000000	     11.94424717	     -3.36849982	     20.62679567	     19.65415670	      0.34302975	     40.26646205	     -4.39073808	      0.00000000	     -0.13449461	      0.04731942	      2.56247598	     -0.24976994	      0.06293482	      2.72263073	     -0.22096119	      0.11505243	      2.72263073	     -0.15371389	      0.11505243	      2.24216648	     -0.12489169	      0.09649375	      2.08201174	     -0.07685022	      0.07329778	      1.92185699	     -0.96068154	      0.53528671	     14.25172267	      0.00000000	      0.00000000	     22.57394098	     -7.19655972	      8.22223822	     53.03200316	      9.99456279	     24.58504725	    108.82929112	     71.16838581	    -17.02729054	     -8.57789206	     39.43326335	      1.61690674	      5.63824614	    130.40891402	     88.40759101	    -10.78544696	      6.04494749
      7.79629630	      8.44793677	     -5.27946888	    111.66646837	      0.11542854	      1.08996129	      0.00105005	      6.70025501	      6.96926768	     -7.58327804	     15.66234327	      0.27335946	     33.81444873	    -16.32157449	      0.00000000	     12.50135790	     -3.36923055	     22.55034206	     20.03517479	      0.34967977	     40.41169013	     -3.92902223	      0.00000000	     -0.09967025	      0.15727608	      2.03450995	     -0.18509762	      0.20917718	      2.16166683	     -0.16374826	      0.38240106	      2.16166683	     -0.11391313	      0.38240106	      1.78019621	     -0.09255380	      0.32071738	      1.65303934	     -0.05695158	      0.24362064	      1.52588247	     -0.71193464	      1.77913845	     11.31533402	      0.00000000	      0.00000000	     22.50051591	     -7.42530672	     10.68847606	     51.38529276	      9.68357109	     27.36230689	    108.54475521	     82.30574371	    -21.35362226	     -5.67697642	     35.46132061	     -1.21373616	      4.15415511	    132.99641586	     87.80521681	    -12.02202458	      7.39743635
      7.81481481	      9.01243854	     -5.28862416	    113.78121988	      0.10929339	      1.08936403	      0.00083264	      6.57457544	      7.13086480	     -9.67031805	     15.18398852	      0.26501059	     33.61391729	    -16.38288007	      0.00000000	     13.00004539	     -3.29676228	     24.18958236	     20.23671718	      0.35319734	     40.44067596	     -3.29163017	      0.00000000	     -0.06255943	      0.26395335	      1.51249174	     -0.11617912	      0.35105796	      1.60702247	     -0.10277889	      0.64177617	      1.60702247	     -0.07149917	      0.64177617	      1.32343027	     -0.05809269	      0.53825367	      1.22889954	     -0.03574646	      0.40886374	      1.13436880	     -0.44685577	      2.98589308	      8.41202531	      0.00000000	      0.00000000	     22.28218403	     -7.80961224	     13.24240588	     49.72388613	      8.71280153	     29.98907308	    108.40528700	     86.35267844	    -20.39490244	     -4.61345490	     30.91109238	     -4.97553937	      2.59141784	    136.25139627	     86.93124702	    -13.16011904	      8.54282451
